<?xml version="1.0" standalone="no"?>
<!DOCTYPE svg PUBLIC "-//W3C//DTD SVG 20010904//EN"
 "http://www.w3.org/TR/2001/REC-SVG-20010904/DTD/svg10.dtd">
<svg version="1.0" xmlns="http://www.w3.org/2000/svg"
 width="512.000000pt" height="512.000000pt" viewBox="0 0 512.000000 512.000000"
 preserveAspectRatio="xMidYMid meet">

<g transform="translate(0.000000,512.000000) scale(0.100000,-0.100000)"
fill="#000000" stroke="none">
<path d="M1325 4634 c-898 -300 -1215 -409 -1227 -425 -23 -27 -23 -71 0 -98
12 -15 146 -64 477 -174 l460 -154 5 -469 c3 -258 8 -474 13 -481 17 -26 257
-177 385 -241 490 -248 1026 -327 1565 -231 234 41 458 118 692 237 121 61
356 210 373 236 4 6 9 222 12 480 l5 469 190 64 c104 34 193 63 197 63 5 0 8
-141 8 -312 l0 -313 -32 -15 c-30 -14 -39 -33 -120 -235 l-88 -219 0 -104 c0
-96 2 -105 25 -127 l24 -25 271 0 271 0 24 25 c23 22 25 31 25 127 l0 104 -88
219 c-81 202 -90 221 -120 235 l-32 15 0 342 0 341 185 62 c194 65 215 77 215
131 0 15 -8 36 -17 48 -14 16 -330 125 -1233 426 -668 223 -1224 405 -1235
404 -11 0 -564 -182 -1230 -405z m-31 -1564 c265 -160 594 -276 926 -327 160
-25 520 -25 680 0 331 51 686 177 943 335 37 23 70 42 72 42 3 0 5 -45 5 -100
l0 -101 -92 -60 c-124 -81 -366 -199 -508 -247 -261 -89 -483 -126 -760 -126
-278 0 -502 37 -760 126 -143 50 -386 167 -507 247 l-93 60 0 101 c0 55 2 100
5 100 4 0 43 -22 89 -50z m3359 -123 c37 -94 68 -184 67 -199 l0 -28 -160 0
-160 0 0 28 c-1 15 30 105 67 199 63 160 70 173 93 173 23 0 30 -13 93 -173z"/>
<path d="M3055 2066 c-72 -18 -124 -47 -250 -142 l-112 -84 -177 0 -176 0 -81
40 c-284 143 -573 157 -853 40 -42 -18 -151 -81 -242 -141 -91 -61 -192 -123
-223 -139 l-58 -29 -49 101 c-50 102 -72 128 -109 128 -32 0 -608 -249 -628
-272 -9 -11 -17 -30 -17 -43 0 -31 647 -1406 672 -1427 11 -10 32 -18 45 -18
32 0 619 334 633 360 17 32 11 58 -35 150 -25 49 -45 91 -45 93 0 11 151 71
236 94 87 23 119 26 264 27 156 1 175 -1 345 -39 170 -37 189 -39 350 -39 137
0 190 5 272 22 135 29 257 73 373 133 93 49 1172 802 1198 836 18 25 15 54
-14 133 -33 89 -94 159 -172 197 -49 24 -69 28 -142 28 -75 0 -93 -4 -152 -32
l-67 -31 -60 24 c-120 49 -230 54 -346 18 -49 -16 -56 -15 -142 5 -101 23
-164 25 -238 7z m129 -155 c3 -5 -18 -27 -47 -49 l-52 -40 -59 12 -59 12 38
24 c61 38 167 62 179 41z m491 -9 c7 -4 -53 -63 -167 -160 -169 -145 -179
-152 -187 -130 -5 13 -25 45 -45 71 -20 26 -36 49 -36 50 0 6 123 102 165 130
56 37 139 58 204 52 29 -3 59 -9 66 -13z m448 4 c38 -15 97 -79 96 -104 0 -23
-976 -710 -1103 -777 -191 -102 -349 -140 -576 -139 -132 0 -174 4 -280 28
-235 51 -294 58 -450 53 -169 -6 -324 -41 -455 -101 -43 -20 -79 -35 -80 -34
-6 6 -315 628 -315 633 0 2 28 19 62 36 34 17 121 71 192 119 170 113 227 145
317 175 218 75 439 53 669 -66 l85 -44 370 -5 c358 -5 371 -6 411 -27 44 -23
114 -97 114 -120 0 -10 -67 -13 -350 -13 l-350 0 0 -80 0 -80 415 0 415 0 287
247 c355 303 423 342 526 299z"/>
</g>
</svg>
