<?xml version="1.0" standalone="no"?>
<!DOCTYPE svg PUBLIC "-//W3C//DTD SVG 20010904//EN"
 "http://www.w3.org/TR/2001/REC-SVG-20010904/DTD/svg10.dtd">
<svg version="1.0" xmlns="http://www.w3.org/2000/svg"
 width="842.000000pt" height="595.000000pt" viewBox="0 0 842.000000 595.000000"
 preserveAspectRatio="xMidYMid meet">

<g transform="translate(0.000000,595.000000) scale(0.100000,-0.100000)"
fill="#000000" stroke="none">
<path d="M4343 3893 c-52 -35 -52 -35 -37 -64 8 -16 16 -29 19 -29 7 0 79 43
97 57 15 14 15 16 0 44 -10 16 -19 29 -22 28 -3 0 -28 -16 -57 -36z"/>
<path d="M4702 3758 c-47 -16 -89 -69 -97 -121 -4 -25 -5 -109 -3 -188 4 -172
14 -200 85 -231 39 -17 62 -20 154 -16 59 2 110 6 114 9 3 4 3 25 -1 48 l-7
41 -92 -6 c-91 -7 -94 -6 -119 19 -26 26 -26 28 -26 170 0 187 3 193 115 190
42 0 87 -4 99 -7 21 -5 24 -2 29 37 3 23 2 46 -3 51 -14 14 -210 17 -248 4z"/>
<path d="M5947 3756 c-87 -32 -97 -59 -97 -273 0 -184 8 -217 62 -257 31 -22
161 -34 243 -22 l46 7 -3 42 -3 42 -103 0 c-136 0 -132 -6 -132 190 0 132 2
154 18 167 26 23 69 29 145 20 65 -8 68 -8 73 14 11 43 1 68 -31 75 -54 12
-179 8 -218 -5z"/>
<path d="M6375 3755 c-52 -20 -83 -51 -96 -94 -6 -21 -9 -103 -7 -198 3 -185
9 -200 88 -240 35 -18 61 -23 125 -23 64 0 90 5 125 23 79 40 85 55 88 245 3
158 2 169 -20 211 -32 62 -80 85 -183 88 -52 2 -94 -3 -120 -12z m174 -90 c16
-8 31 -22 35 -30 3 -9 6 -81 6 -160 0 -143 0 -144 -26 -164 -19 -15 -41 -21
-79 -21 -38 0 -60 6 -79 21 l-26 20 0 153 c0 160 3 172 50 189 29 11 91 7 119
-8z"/>
<path d="M3670 3715 l0 -45 80 0 80 0 0 -236 0 -235 53 3 52 3 3 233 2 232 80
0 80 0 0 45 0 45 -215 0 -215 0 0 -45z"/>
<path d="M4170 3480 l0 -280 173 2 172 3 0 45 0 45 -117 3 -118 3 0 69 0 70
110 0 110 0 0 45 0 45 -110 0 -110 0 0 70 0 70 120 0 120 0 0 45 0 45 -175 0
-175 0 0 -280z"/>
<path d="M5050 3480 l0 -280 50 0 50 0 2 213 3 212 108 -212 107 -213 70 0 70
0 0 280 0 280 -50 0 -50 0 -2 -207 -3 -208 -105 207 -105 208 -72 0 -73 0 0
-280z"/>
<path d="M5632 3483 l3 -278 53 -3 52 -3 0 280 0 281 -55 0 -55 0 2 -277z"/>
<path d="M3830 2781 l0 -281 150 0 c143 0 150 1 150 20 0 19 -7 20 -125 20
l-125 0 -2 258 -3 257 -22 3 -23 3 0 -280z"/>
<path d="M4250 2780 l0 -280 25 0 25 0 0 280 0 280 -25 0 -25 0 0 -280z"/>
<path d="M4511 3047 c-47 -24 -65 -61 -63 -132 1 -103 25 -127 157 -159 107
-26 115 -34 115 -111 0 -51 -4 -69 -19 -84 -27 -27 -98 -35 -176 -22 -68 12
-85 9 -85 -14 0 -20 102 -38 187 -33 116 8 145 39 144 155 -1 100 -14 114
-156 152 -105 29 -115 39 -115 115 0 34 4 66 8 72 18 28 57 36 156 33 86 -3
101 -2 104 12 2 12 -7 18 -35 23 -64 10 -197 6 -222 -7z"/>
<path d="M4910 2780 l0 -280 135 0 c197 0 215 13 215 148 0 65 -4 84 -21 106
-11 14 -28 26 -37 26 -12 0 -8 8 13 30 25 26 30 40 33 93 4 80 -18 127 -68
144 -19 7 -88 12 -152 12 l-118 1 0 -280z m274 208 c24 -34 21 -119 -5 -152
-20 -25 -24 -26 -120 -26 l-99 0 0 100 0 100 104 0 c97 0 106 -2 120 -22z m4
-248 c19 -18 22 -32 22 -95 0 -99 -9 -105 -147 -105 l-103 0 0 110 0 110 103
0 c90 0 106 -3 125 -20z"/>
<path d="M5452 3040 c-69 -31 -82 -71 -82 -263 0 -169 7 -204 51 -243 33 -30
82 -44 149 -44 102 0 171 39 190 109 5 20 10 104 10 186 0 183 -12 220 -82
254 -59 28 -174 29 -236 1z m204 -35 c54 -22 64 -58 64 -231 0 -167 -10 -203
-63 -226 -42 -17 -133 -17 -175 1 -54 23 -62 50 -62 226 0 176 9 207 63 230
42 19 129 19 173 0z"/>
<path d="M6045 3048 c-3 -7 -47 -132 -99 -278 -86 -244 -92 -265 -74 -268 26
-5 26 -4 53 70 l23 63 135 3 135 3 25 -68 c21 -58 28 -68 51 -71 25 -3 25 -2
15 25 -6 15 -48 134 -94 263 -46 129 -86 243 -90 253 -8 20 -73 24 -80 5z m94
-179 c27 -79 52 -152 56 -161 7 -17 -2 -18 -109 -18 -64 0 -116 1 -116 3 0 4
97 289 105 310 4 10 9 16 11 14 2 -2 26 -68 53 -148z"/>
</g>
</svg>
